# xmcd CD database file
#
# Track frame offsets:
#	150
#	17132
#	38562
#	50437
#	73122
#	91172
#	106842
#	125650
#	143912
#	161000
#
# Disc length: 2502 seconds
#
# Revision: 2
# Processed by: cddbd v1.5.2PL0 Copyright (c) Steve Scherf et al.
# Submitted via: CDex 1.92
#
DISCID=8209c40a
DTITLE=Albert Lee - Hiding
DYEAR=1979
DGENRE=Rock
TTITLE0=Country Boy
TTITLE1=Billy Tyler
TTITLE2=Are You Wasting My Time
TTITLE3=Now And Then It's Gonna Rain
TTITLE4=On A Real Good Night
TTITLE5=Setting Me Up
TTITLE6=Ain't Livin' Long Like This
TTITLE7=Hiding
TTITLE8=Hotel Love
TTITLE9=Come Up And See Me Anytime
EXTD=YEAR: 1979
EXTT0=
EXTT1=
EXTT2=
EXTT3=
EXTT4=
EXTT5=
EXTT6=
EXTT7=
EXTT8=
EXTT9=
PLAYORDER=
